%TF.GenerationSoftware,KiCad,Pcbnew,7.0.5*%
%TF.CreationDate,2023-09-05T23:41:28-04:00*%
%TF.ProjectId,relay-module,72656c61-792d-46d6-9f64-756c652e6b69,rev?*%
%TF.SameCoordinates,Original*%
%TF.FileFunction,Copper,L1,Top*%
%TF.FilePolarity,Positive*%
%FSLAX46Y46*%
G04 Gerber Fmt 4.6, Leading zero omitted, Abs format (unit mm)*
G04 Created by KiCad (PCBNEW 7.0.5) date 2023-09-05 23:41:28*
%MOMM*%
%LPD*%
G01*
G04 APERTURE LIST*
%TA.AperFunction,ComponentPad*%
%ADD10R,1.700000X1.700000*%
%TD*%
%TA.AperFunction,ComponentPad*%
%ADD11O,1.700000X1.700000*%
%TD*%
%TA.AperFunction,ComponentPad*%
%ADD12C,2.400000*%
%TD*%
%TA.AperFunction,ComponentPad*%
%ADD13O,2.400000X2.400000*%
%TD*%
%TA.AperFunction,ComponentPad*%
%ADD14C,3.000000*%
%TD*%
%TA.AperFunction,ComponentPad*%
%ADD15R,3.000000X3.000000*%
%TD*%
%TA.AperFunction,ComponentPad*%
%ADD16R,2.100000X2.100000*%
%TD*%
%TA.AperFunction,ComponentPad*%
%ADD17C,2.100000*%
%TD*%
%TA.AperFunction,ComponentPad*%
%ADD18R,1.600000X1.600000*%
%TD*%
%TA.AperFunction,ComponentPad*%
%ADD19O,1.600000X1.600000*%
%TD*%
%TA.AperFunction,SMDPad,CuDef*%
%ADD20R,2.000000X1.500000*%
%TD*%
%TA.AperFunction,ComponentPad*%
%ADD21C,1.600000*%
%TD*%
%TA.AperFunction,Conductor*%
%ADD22C,0.400000*%
%TD*%
%TA.AperFunction,Conductor*%
%ADD23C,0.600000*%
%TD*%
G04 APERTURE END LIST*
D10*
%TO.P,JP2,1,Pin_1*%
%TO.N,Net-(JP2-Pin_1)*%
X141000000Y-122000000D03*
D11*
%TO.P,JP2,2,Pin_2*%
%TO.N,Net-(J1-Pin_5)*%
X141000000Y-124540000D03*
%TO.P,JP2,3,Pin_3*%
%TO.N,Net-(JP2-Pin_3)*%
X141000000Y-127080000D03*
%TD*%
D12*
%TO.P,R1,1*%
%TO.N,Net-(D1-+)*%
X118240000Y-133000000D03*
D13*
%TO.P,R1,2*%
%TO.N,Net-(D2-K)*%
X103000000Y-133000000D03*
%TD*%
D14*
%TO.P,K1,11*%
%TO.N,Net-(J1-Pin_6)*%
X144292500Y-135292500D03*
%TO.P,K1,12*%
%TO.N,Net-(JP1-Pin_3)*%
X139292500Y-135292500D03*
%TO.P,K1,14*%
%TO.N,Net-(JP1-Pin_1)*%
X149292500Y-135292500D03*
%TO.P,K1,21*%
%TO.N,Net-(J1-Pin_4)*%
X144292500Y-142792500D03*
%TO.P,K1,22*%
%TO.N,Net-(JP2-Pin_3)*%
X139292500Y-142792500D03*
%TO.P,K1,24*%
%TO.N,Net-(JP2-Pin_1)*%
X149292500Y-142792500D03*
D15*
%TO.P,K1,A1*%
%TO.N,Net-(D2-K)*%
X124292500Y-135292500D03*
D14*
%TO.P,K1,A2*%
%TO.N,Net-(D1--)*%
X124292500Y-142792500D03*
%TD*%
D10*
%TO.P,JP1,1,Pin_1*%
%TO.N,Net-(JP1-Pin_1)*%
X136000000Y-122000000D03*
D11*
%TO.P,JP1,2,Pin_2*%
%TO.N,Net-(J1-Pin_3)*%
X136000000Y-124540000D03*
%TO.P,JP1,3,Pin_3*%
%TO.N,Net-(JP1-Pin_3)*%
X136000000Y-127080000D03*
%TD*%
D16*
%TO.P,J1,1,Pin_1*%
%TO.N,Net-(J1-Pin_1)*%
X104500000Y-125000000D03*
D17*
%TO.P,J1,2,Pin_2*%
%TO.N,Net-(J1-Pin_2)*%
X109500000Y-125000000D03*
%TO.P,J1,3,Pin_3*%
%TO.N,Net-(J1-Pin_3)*%
X114500000Y-125000000D03*
%TO.P,J1,4,Pin_4*%
%TO.N,Net-(J1-Pin_4)*%
X119500000Y-125000000D03*
%TO.P,J1,5,Pin_5*%
%TO.N,Net-(J1-Pin_5)*%
X124500000Y-125000000D03*
%TO.P,J1,6,Pin_6*%
%TO.N,Net-(J1-Pin_6)*%
X129500000Y-125000000D03*
%TD*%
D18*
%TO.P,D2,1,K*%
%TO.N,Net-(D2-K)*%
X118000000Y-137000000D03*
D19*
%TO.P,D2,2,A*%
%TO.N,Net-(D1--)*%
X118000000Y-144620000D03*
%TD*%
D20*
%TO.P,D1,1,+*%
%TO.N,Net-(D1-+)*%
X112000000Y-143550000D03*
%TO.P,D1,2,-*%
%TO.N,Net-(D1--)*%
X112000000Y-138450000D03*
%TO.P,D1,3*%
%TO.N,Net-(J1-Pin_1)*%
X103260000Y-138450000D03*
%TO.P,D1,4*%
%TO.N,Net-(J1-Pin_2)*%
X103260000Y-143550000D03*
%TD*%
D18*
%TO.P,C1,1*%
%TO.N,Net-(D1-+)*%
X147000000Y-128500000D03*
D21*
%TO.P,C1,2*%
%TO.N,Net-(D1--)*%
X147000000Y-126000000D03*
%TD*%
D22*
%TO.N,Net-(D1-+)*%
X109800000Y-135200000D02*
X112000000Y-133000000D01*
X112000000Y-143550000D02*
X109800000Y-141350000D01*
X144500000Y-128500000D02*
X147000000Y-128500000D01*
X119000000Y-133000000D02*
X121000000Y-131000000D01*
X121000000Y-131000000D02*
X142000000Y-131000000D01*
X109800000Y-141350000D02*
X109800000Y-135200000D01*
X112000000Y-133000000D02*
X119000000Y-133000000D01*
X142000000Y-131000000D02*
X144500000Y-128500000D01*
%TO.N,Net-(D1--)*%
X112000000Y-140000000D02*
X116620000Y-144620000D01*
X119620000Y-143000000D02*
X124085000Y-143000000D01*
X150000000Y-127750000D02*
X150000000Y-128500000D01*
X135085000Y-132000000D02*
X124292500Y-142792500D01*
X150000000Y-128500000D02*
X146500000Y-132000000D01*
X146500000Y-132000000D02*
X135085000Y-132000000D01*
X112000000Y-138450000D02*
X112000000Y-140000000D01*
X116620000Y-144620000D02*
X118000000Y-144620000D01*
X148250000Y-126000000D02*
X150000000Y-127750000D01*
X148250000Y-126000000D02*
X147000000Y-126000000D01*
X118000000Y-144620000D02*
X119620000Y-143000000D01*
D23*
%TO.N,Net-(J1-Pin_5)*%
X138150000Y-126850000D02*
X140460000Y-124540000D01*
X128730000Y-129230000D02*
X136890560Y-129230000D01*
X138150000Y-127970560D02*
X138150000Y-126850000D01*
X124500000Y-125000000D02*
X128730000Y-129230000D01*
X136890560Y-129230000D02*
X138150000Y-127970560D01*
D22*
%TO.N,Net-(J1-Pin_1)*%
X106000000Y-135710000D02*
X106000000Y-126500000D01*
X106000000Y-126500000D02*
X104500000Y-125000000D01*
X103260000Y-138450000D02*
X106000000Y-135710000D01*
%TO.N,Net-(J1-Pin_2)*%
X108000000Y-138810000D02*
X108000000Y-126500000D01*
X108000000Y-126500000D02*
X109500000Y-125000000D01*
X103260000Y-143550000D02*
X108000000Y-138810000D01*
D23*
%TO.N,Net-(J1-Pin_3)*%
X116850000Y-122650000D02*
X132650000Y-122650000D01*
X132650000Y-122650000D02*
X134540000Y-124540000D01*
X114500000Y-125000000D02*
X116850000Y-122650000D01*
X134540000Y-124540000D02*
X136000000Y-124540000D01*
%TO.N,Net-(JP2-Pin_3)*%
X139292500Y-142792500D02*
X143992500Y-138092500D01*
X147121320Y-136423478D02*
X147121320Y-133500000D01*
X151000000Y-126000000D02*
X149000000Y-124000000D01*
X149000000Y-124000000D02*
X144580560Y-124000000D01*
X145452298Y-138092500D02*
X147121320Y-136423478D01*
X151000000Y-129621320D02*
X151000000Y-126000000D01*
X144580560Y-124000000D02*
X141500560Y-127080000D01*
X143992500Y-138092500D02*
X145452298Y-138092500D01*
X147121320Y-133500000D02*
X151000000Y-129621320D01*
%TD*%
M02*
