%TF.GenerationSoftware,KiCad,Pcbnew,7.0.5*%
%TF.CreationDate,2023-09-05T23:41:28-04:00*%
%TF.ProjectId,relay-module,72656c61-792d-46d6-9f64-756c652e6b69,rev?*%
%TF.SameCoordinates,Original*%
%TF.FileFunction,Legend,Top*%
%TF.FilePolarity,Positive*%
%FSLAX46Y46*%
G04 Gerber Fmt 4.6, Leading zero omitted, Abs format (unit mm)*
G04 Created by KiCad (PCBNEW 7.0.5) date 2023-09-05 23:41:28*
%MOMM*%
%LPD*%
G01*
G04 APERTURE LIST*
%ADD10C,0.150000*%
%ADD11C,0.120000*%
G04 APERTURE END LIST*
D10*
X136860588Y-119869819D02*
X136289160Y-119869819D01*
X136574874Y-119869819D02*
X136574874Y-118869819D01*
X136574874Y-118869819D02*
X136479636Y-119012676D01*
X136479636Y-119012676D02*
X136384398Y-119107914D01*
X136384398Y-119107914D02*
X136289160Y-119155533D01*
X137717731Y-118869819D02*
X137527255Y-118869819D01*
X137527255Y-118869819D02*
X137432017Y-118917438D01*
X137432017Y-118917438D02*
X137384398Y-118965057D01*
X137384398Y-118965057D02*
X137289160Y-119107914D01*
X137289160Y-119107914D02*
X137241541Y-119298390D01*
X137241541Y-119298390D02*
X137241541Y-119679342D01*
X137241541Y-119679342D02*
X137289160Y-119774580D01*
X137289160Y-119774580D02*
X137336779Y-119822200D01*
X137336779Y-119822200D02*
X137432017Y-119869819D01*
X137432017Y-119869819D02*
X137622493Y-119869819D01*
X137622493Y-119869819D02*
X137717731Y-119822200D01*
X137717731Y-119822200D02*
X137765350Y-119774580D01*
X137765350Y-119774580D02*
X137812969Y-119679342D01*
X137812969Y-119679342D02*
X137812969Y-119441247D01*
X137812969Y-119441247D02*
X137765350Y-119346009D01*
X137765350Y-119346009D02*
X137717731Y-119298390D01*
X137717731Y-119298390D02*
X137622493Y-119250771D01*
X137622493Y-119250771D02*
X137432017Y-119250771D01*
X137432017Y-119250771D02*
X137336779Y-119298390D01*
X137336779Y-119298390D02*
X137289160Y-119346009D01*
X137289160Y-119346009D02*
X137241541Y-119441247D01*
X138098684Y-118869819D02*
X138432017Y-119869819D01*
X138432017Y-119869819D02*
X138765350Y-118869819D01*
X139051065Y-119584104D02*
X139527255Y-119584104D01*
X138955827Y-119869819D02*
X139289160Y-118869819D01*
X139289160Y-118869819D02*
X139622493Y-119869819D01*
X140527255Y-119774580D02*
X140479636Y-119822200D01*
X140479636Y-119822200D02*
X140336779Y-119869819D01*
X140336779Y-119869819D02*
X140241541Y-119869819D01*
X140241541Y-119869819D02*
X140098684Y-119822200D01*
X140098684Y-119822200D02*
X140003446Y-119726961D01*
X140003446Y-119726961D02*
X139955827Y-119631723D01*
X139955827Y-119631723D02*
X139908208Y-119441247D01*
X139908208Y-119441247D02*
X139908208Y-119298390D01*
X139908208Y-119298390D02*
X139955827Y-119107914D01*
X139955827Y-119107914D02*
X140003446Y-119012676D01*
X140003446Y-119012676D02*
X140098684Y-118917438D01*
X140098684Y-118917438D02*
X140241541Y-118869819D01*
X140241541Y-118869819D02*
X140336779Y-118869819D01*
X140336779Y-118869819D02*
X140479636Y-118917438D01*
X140479636Y-118917438D02*
X140527255Y-118965057D01*
X141717732Y-119869819D02*
X141717732Y-118869819D01*
X141717732Y-118869819D02*
X141955827Y-118869819D01*
X141955827Y-118869819D02*
X142098684Y-118917438D01*
X142098684Y-118917438D02*
X142193922Y-119012676D01*
X142193922Y-119012676D02*
X142241541Y-119107914D01*
X142241541Y-119107914D02*
X142289160Y-119298390D01*
X142289160Y-119298390D02*
X142289160Y-119441247D01*
X142289160Y-119441247D02*
X142241541Y-119631723D01*
X142241541Y-119631723D02*
X142193922Y-119726961D01*
X142193922Y-119726961D02*
X142098684Y-119822200D01*
X142098684Y-119822200D02*
X141955827Y-119869819D01*
X141955827Y-119869819D02*
X141717732Y-119869819D01*
X142717732Y-119869819D02*
X142717732Y-118869819D01*
X142717732Y-118869819D02*
X143098684Y-118869819D01*
X143098684Y-118869819D02*
X143193922Y-118917438D01*
X143193922Y-118917438D02*
X143241541Y-118965057D01*
X143241541Y-118965057D02*
X143289160Y-119060295D01*
X143289160Y-119060295D02*
X143289160Y-119203152D01*
X143289160Y-119203152D02*
X143241541Y-119298390D01*
X143241541Y-119298390D02*
X143193922Y-119346009D01*
X143193922Y-119346009D02*
X143098684Y-119393628D01*
X143098684Y-119393628D02*
X142717732Y-119393628D01*
X143717732Y-119869819D02*
X143717732Y-118869819D01*
X143717732Y-118869819D02*
X143955827Y-118869819D01*
X143955827Y-118869819D02*
X144098684Y-118917438D01*
X144098684Y-118917438D02*
X144193922Y-119012676D01*
X144193922Y-119012676D02*
X144241541Y-119107914D01*
X144241541Y-119107914D02*
X144289160Y-119298390D01*
X144289160Y-119298390D02*
X144289160Y-119441247D01*
X144289160Y-119441247D02*
X144241541Y-119631723D01*
X144241541Y-119631723D02*
X144193922Y-119726961D01*
X144193922Y-119726961D02*
X144098684Y-119822200D01*
X144098684Y-119822200D02*
X143955827Y-119869819D01*
X143955827Y-119869819D02*
X143717732Y-119869819D01*
X144574875Y-118869819D02*
X145146303Y-118869819D01*
X144860589Y-119869819D02*
X144860589Y-118869819D01*
X146812970Y-119869819D02*
X146479637Y-119393628D01*
X146241542Y-119869819D02*
X146241542Y-118869819D01*
X146241542Y-118869819D02*
X146622494Y-118869819D01*
X146622494Y-118869819D02*
X146717732Y-118917438D01*
X146717732Y-118917438D02*
X146765351Y-118965057D01*
X146765351Y-118965057D02*
X146812970Y-119060295D01*
X146812970Y-119060295D02*
X146812970Y-119203152D01*
X146812970Y-119203152D02*
X146765351Y-119298390D01*
X146765351Y-119298390D02*
X146717732Y-119346009D01*
X146717732Y-119346009D02*
X146622494Y-119393628D01*
X146622494Y-119393628D02*
X146241542Y-119393628D01*
X147241542Y-119346009D02*
X147574875Y-119346009D01*
X147717732Y-119869819D02*
X147241542Y-119869819D01*
X147241542Y-119869819D02*
X147241542Y-118869819D01*
X147241542Y-118869819D02*
X147717732Y-118869819D01*
X148622494Y-119869819D02*
X148146304Y-119869819D01*
X148146304Y-119869819D02*
X148146304Y-118869819D01*
X148908209Y-119584104D02*
X149384399Y-119584104D01*
X148812971Y-119869819D02*
X149146304Y-118869819D01*
X149146304Y-118869819D02*
X149479637Y-119869819D01*
X150003447Y-119393628D02*
X150003447Y-119869819D01*
X149670114Y-118869819D02*
X150003447Y-119393628D01*
X150003447Y-119393628D02*
X150336780Y-118869819D01*
X118312969Y-119808628D02*
X117812969Y-119094342D01*
X117455826Y-119808628D02*
X117455826Y-118308628D01*
X117455826Y-118308628D02*
X118027255Y-118308628D01*
X118027255Y-118308628D02*
X118170112Y-118380057D01*
X118170112Y-118380057D02*
X118241541Y-118451485D01*
X118241541Y-118451485D02*
X118312969Y-118594342D01*
X118312969Y-118594342D02*
X118312969Y-118808628D01*
X118312969Y-118808628D02*
X118241541Y-118951485D01*
X118241541Y-118951485D02*
X118170112Y-119022914D01*
X118170112Y-119022914D02*
X118027255Y-119094342D01*
X118027255Y-119094342D02*
X117455826Y-119094342D01*
X119741541Y-119808628D02*
X118884398Y-119808628D01*
X119312969Y-119808628D02*
X119312969Y-118308628D01*
X119312969Y-118308628D02*
X119170112Y-118522914D01*
X119170112Y-118522914D02*
X119027255Y-118665771D01*
X119027255Y-118665771D02*
X118884398Y-118737200D01*
X121241540Y-119665771D02*
X121170112Y-119737200D01*
X121170112Y-119737200D02*
X120955826Y-119808628D01*
X120955826Y-119808628D02*
X120812969Y-119808628D01*
X120812969Y-119808628D02*
X120598683Y-119737200D01*
X120598683Y-119737200D02*
X120455826Y-119594342D01*
X120455826Y-119594342D02*
X120384397Y-119451485D01*
X120384397Y-119451485D02*
X120312969Y-119165771D01*
X120312969Y-119165771D02*
X120312969Y-118951485D01*
X120312969Y-118951485D02*
X120384397Y-118665771D01*
X120384397Y-118665771D02*
X120455826Y-118522914D01*
X120455826Y-118522914D02*
X120598683Y-118380057D01*
X120598683Y-118380057D02*
X120812969Y-118308628D01*
X120812969Y-118308628D02*
X120955826Y-118308628D01*
X120955826Y-118308628D02*
X121170112Y-118380057D01*
X121170112Y-118380057D02*
X121241540Y-118451485D01*
X124312969Y-119808628D02*
X123812969Y-119094342D01*
X123455826Y-119808628D02*
X123455826Y-118308628D01*
X123455826Y-118308628D02*
X124027255Y-118308628D01*
X124027255Y-118308628D02*
X124170112Y-118380057D01*
X124170112Y-118380057D02*
X124241541Y-118451485D01*
X124241541Y-118451485D02*
X124312969Y-118594342D01*
X124312969Y-118594342D02*
X124312969Y-118808628D01*
X124312969Y-118808628D02*
X124241541Y-118951485D01*
X124241541Y-118951485D02*
X124170112Y-119022914D01*
X124170112Y-119022914D02*
X124027255Y-119094342D01*
X124027255Y-119094342D02*
X123455826Y-119094342D01*
X124884398Y-118451485D02*
X124955826Y-118380057D01*
X124955826Y-118380057D02*
X125098684Y-118308628D01*
X125098684Y-118308628D02*
X125455826Y-118308628D01*
X125455826Y-118308628D02*
X125598684Y-118380057D01*
X125598684Y-118380057D02*
X125670112Y-118451485D01*
X125670112Y-118451485D02*
X125741541Y-118594342D01*
X125741541Y-118594342D02*
X125741541Y-118737200D01*
X125741541Y-118737200D02*
X125670112Y-118951485D01*
X125670112Y-118951485D02*
X124812969Y-119808628D01*
X124812969Y-119808628D02*
X125741541Y-119808628D01*
X114312969Y-119808628D02*
X113812969Y-119094342D01*
X113455826Y-119808628D02*
X113455826Y-118308628D01*
X113455826Y-118308628D02*
X114027255Y-118308628D01*
X114027255Y-118308628D02*
X114170112Y-118380057D01*
X114170112Y-118380057D02*
X114241541Y-118451485D01*
X114241541Y-118451485D02*
X114312969Y-118594342D01*
X114312969Y-118594342D02*
X114312969Y-118808628D01*
X114312969Y-118808628D02*
X114241541Y-118951485D01*
X114241541Y-118951485D02*
X114170112Y-119022914D01*
X114170112Y-119022914D02*
X114027255Y-119094342D01*
X114027255Y-119094342D02*
X113455826Y-119094342D01*
X115741541Y-119808628D02*
X114884398Y-119808628D01*
X115312969Y-119808628D02*
X115312969Y-118308628D01*
X115312969Y-118308628D02*
X115170112Y-118522914D01*
X115170112Y-118522914D02*
X115027255Y-118665771D01*
X115027255Y-118665771D02*
X114884398Y-118737200D01*
X128312969Y-119808628D02*
X127812969Y-119094342D01*
X127455826Y-119808628D02*
X127455826Y-118308628D01*
X127455826Y-118308628D02*
X128027255Y-118308628D01*
X128027255Y-118308628D02*
X128170112Y-118380057D01*
X128170112Y-118380057D02*
X128241541Y-118451485D01*
X128241541Y-118451485D02*
X128312969Y-118594342D01*
X128312969Y-118594342D02*
X128312969Y-118808628D01*
X128312969Y-118808628D02*
X128241541Y-118951485D01*
X128241541Y-118951485D02*
X128170112Y-119022914D01*
X128170112Y-119022914D02*
X128027255Y-119094342D01*
X128027255Y-119094342D02*
X127455826Y-119094342D01*
X128884398Y-118451485D02*
X128955826Y-118380057D01*
X128955826Y-118380057D02*
X129098684Y-118308628D01*
X129098684Y-118308628D02*
X129455826Y-118308628D01*
X129455826Y-118308628D02*
X129598684Y-118380057D01*
X129598684Y-118380057D02*
X129670112Y-118451485D01*
X129670112Y-118451485D02*
X129741541Y-118594342D01*
X129741541Y-118594342D02*
X129741541Y-118737200D01*
X129741541Y-118737200D02*
X129670112Y-118951485D01*
X129670112Y-118951485D02*
X128812969Y-119808628D01*
X128812969Y-119808628D02*
X129741541Y-119808628D01*
X131241540Y-119665771D02*
X131170112Y-119737200D01*
X131170112Y-119737200D02*
X130955826Y-119808628D01*
X130955826Y-119808628D02*
X130812969Y-119808628D01*
X130812969Y-119808628D02*
X130598683Y-119737200D01*
X130598683Y-119737200D02*
X130455826Y-119594342D01*
X130455826Y-119594342D02*
X130384397Y-119451485D01*
X130384397Y-119451485D02*
X130312969Y-119165771D01*
X130312969Y-119165771D02*
X130312969Y-118951485D01*
X130312969Y-118951485D02*
X130384397Y-118665771D01*
X130384397Y-118665771D02*
X130455826Y-118522914D01*
X130455826Y-118522914D02*
X130598683Y-118380057D01*
X130598683Y-118380057D02*
X130812969Y-118308628D01*
X130812969Y-118308628D02*
X130955826Y-118308628D01*
X130955826Y-118308628D02*
X131170112Y-118380057D01*
X131170112Y-118380057D02*
X131241540Y-118451485D01*
X138869819Y-127663220D02*
X137869819Y-127663220D01*
X137869819Y-127663220D02*
X138869819Y-127091792D01*
X138869819Y-127091792D02*
X137869819Y-127091792D01*
X138774580Y-126044173D02*
X138822200Y-126091792D01*
X138822200Y-126091792D02*
X138869819Y-126234649D01*
X138869819Y-126234649D02*
X138869819Y-126329887D01*
X138869819Y-126329887D02*
X138822200Y-126472744D01*
X138822200Y-126472744D02*
X138726961Y-126567982D01*
X138726961Y-126567982D02*
X138631723Y-126615601D01*
X138631723Y-126615601D02*
X138441247Y-126663220D01*
X138441247Y-126663220D02*
X138298390Y-126663220D01*
X138298390Y-126663220D02*
X138107914Y-126615601D01*
X138107914Y-126615601D02*
X138012676Y-126567982D01*
X138012676Y-126567982D02*
X137917438Y-126472744D01*
X137917438Y-126472744D02*
X137869819Y-126329887D01*
X137869819Y-126329887D02*
X137869819Y-126234649D01*
X137869819Y-126234649D02*
X137917438Y-126091792D01*
X137917438Y-126091792D02*
X137965057Y-126044173D01*
X138488866Y-124853696D02*
X138488866Y-124091792D01*
X138869819Y-122853696D02*
X137869819Y-122853696D01*
X137869819Y-122853696D02*
X138869819Y-122282268D01*
X138869819Y-122282268D02*
X137869819Y-122282268D01*
X137869819Y-121615601D02*
X137869819Y-121425125D01*
X137869819Y-121425125D02*
X137917438Y-121329887D01*
X137917438Y-121329887D02*
X138012676Y-121234649D01*
X138012676Y-121234649D02*
X138203152Y-121187030D01*
X138203152Y-121187030D02*
X138536485Y-121187030D01*
X138536485Y-121187030D02*
X138726961Y-121234649D01*
X138726961Y-121234649D02*
X138822200Y-121329887D01*
X138822200Y-121329887D02*
X138869819Y-121425125D01*
X138869819Y-121425125D02*
X138869819Y-121615601D01*
X138869819Y-121615601D02*
X138822200Y-121710839D01*
X138822200Y-121710839D02*
X138726961Y-121806077D01*
X138726961Y-121806077D02*
X138536485Y-121853696D01*
X138536485Y-121853696D02*
X138203152Y-121853696D01*
X138203152Y-121853696D02*
X138012676Y-121806077D01*
X138012676Y-121806077D02*
X137917438Y-121710839D01*
X137917438Y-121710839D02*
X137869819Y-121615601D01*
X103384398Y-119380057D02*
X104098684Y-119380057D01*
X103241541Y-119808628D02*
X103741541Y-118308628D01*
X103741541Y-118308628D02*
X104241541Y-119808628D01*
X105598683Y-119665771D02*
X105527255Y-119737200D01*
X105527255Y-119737200D02*
X105312969Y-119808628D01*
X105312969Y-119808628D02*
X105170112Y-119808628D01*
X105170112Y-119808628D02*
X104955826Y-119737200D01*
X104955826Y-119737200D02*
X104812969Y-119594342D01*
X104812969Y-119594342D02*
X104741540Y-119451485D01*
X104741540Y-119451485D02*
X104670112Y-119165771D01*
X104670112Y-119165771D02*
X104670112Y-118951485D01*
X104670112Y-118951485D02*
X104741540Y-118665771D01*
X104741540Y-118665771D02*
X104812969Y-118522914D01*
X104812969Y-118522914D02*
X104955826Y-118380057D01*
X104955826Y-118380057D02*
X105170112Y-118308628D01*
X105170112Y-118308628D02*
X105312969Y-118308628D01*
X105312969Y-118308628D02*
X105527255Y-118380057D01*
X105527255Y-118380057D02*
X105598683Y-118451485D01*
X108384398Y-119380057D02*
X109098684Y-119380057D01*
X108241541Y-119808628D02*
X108741541Y-118308628D01*
X108741541Y-118308628D02*
X109241541Y-119808628D01*
X110598683Y-119665771D02*
X110527255Y-119737200D01*
X110527255Y-119737200D02*
X110312969Y-119808628D01*
X110312969Y-119808628D02*
X110170112Y-119808628D01*
X110170112Y-119808628D02*
X109955826Y-119737200D01*
X109955826Y-119737200D02*
X109812969Y-119594342D01*
X109812969Y-119594342D02*
X109741540Y-119451485D01*
X109741540Y-119451485D02*
X109670112Y-119165771D01*
X109670112Y-119165771D02*
X109670112Y-118951485D01*
X109670112Y-118951485D02*
X109741540Y-118665771D01*
X109741540Y-118665771D02*
X109812969Y-118522914D01*
X109812969Y-118522914D02*
X109955826Y-118380057D01*
X109955826Y-118380057D02*
X110170112Y-118308628D01*
X110170112Y-118308628D02*
X110312969Y-118308628D01*
X110312969Y-118308628D02*
X110527255Y-118380057D01*
X110527255Y-118380057D02*
X110598683Y-118451485D01*
%TO.C,JP2*%
X140166666Y-129534819D02*
X140166666Y-130249104D01*
X140166666Y-130249104D02*
X140119047Y-130391961D01*
X140119047Y-130391961D02*
X140023809Y-130487200D01*
X140023809Y-130487200D02*
X139880952Y-130534819D01*
X139880952Y-130534819D02*
X139785714Y-130534819D01*
X140642857Y-130534819D02*
X140642857Y-129534819D01*
X140642857Y-129534819D02*
X141023809Y-129534819D01*
X141023809Y-129534819D02*
X141119047Y-129582438D01*
X141119047Y-129582438D02*
X141166666Y-129630057D01*
X141166666Y-129630057D02*
X141214285Y-129725295D01*
X141214285Y-129725295D02*
X141214285Y-129868152D01*
X141214285Y-129868152D02*
X141166666Y-129963390D01*
X141166666Y-129963390D02*
X141119047Y-130011009D01*
X141119047Y-130011009D02*
X141023809Y-130058628D01*
X141023809Y-130058628D02*
X140642857Y-130058628D01*
X141595238Y-129630057D02*
X141642857Y-129582438D01*
X141642857Y-129582438D02*
X141738095Y-129534819D01*
X141738095Y-129534819D02*
X141976190Y-129534819D01*
X141976190Y-129534819D02*
X142071428Y-129582438D01*
X142071428Y-129582438D02*
X142119047Y-129630057D01*
X142119047Y-129630057D02*
X142166666Y-129725295D01*
X142166666Y-129725295D02*
X142166666Y-129820533D01*
X142166666Y-129820533D02*
X142119047Y-129963390D01*
X142119047Y-129963390D02*
X141547619Y-130534819D01*
X141547619Y-130534819D02*
X142166666Y-130534819D01*
%TO.C,R1*%
X119833333Y-134454819D02*
X119500000Y-133978628D01*
X119261905Y-134454819D02*
X119261905Y-133454819D01*
X119261905Y-133454819D02*
X119642857Y-133454819D01*
X119642857Y-133454819D02*
X119738095Y-133502438D01*
X119738095Y-133502438D02*
X119785714Y-133550057D01*
X119785714Y-133550057D02*
X119833333Y-133645295D01*
X119833333Y-133645295D02*
X119833333Y-133788152D01*
X119833333Y-133788152D02*
X119785714Y-133883390D01*
X119785714Y-133883390D02*
X119738095Y-133931009D01*
X119738095Y-133931009D02*
X119642857Y-133978628D01*
X119642857Y-133978628D02*
X119261905Y-133978628D01*
X120785714Y-134454819D02*
X120214286Y-134454819D01*
X120500000Y-134454819D02*
X120500000Y-133454819D01*
X120500000Y-133454819D02*
X120404762Y-133597676D01*
X120404762Y-133597676D02*
X120309524Y-133692914D01*
X120309524Y-133692914D02*
X120214286Y-133740533D01*
%TO.C,K1*%
X133554405Y-132147319D02*
X133554405Y-131147319D01*
X134125833Y-132147319D02*
X133697262Y-131575890D01*
X134125833Y-131147319D02*
X133554405Y-131718747D01*
X135078214Y-132147319D02*
X134506786Y-132147319D01*
X134792500Y-132147319D02*
X134792500Y-131147319D01*
X134792500Y-131147319D02*
X134697262Y-131290176D01*
X134697262Y-131290176D02*
X134602024Y-131385414D01*
X134602024Y-131385414D02*
X134506786Y-131433033D01*
%TO.C,JP1*%
X135166666Y-129454819D02*
X135166666Y-130169104D01*
X135166666Y-130169104D02*
X135119047Y-130311961D01*
X135119047Y-130311961D02*
X135023809Y-130407200D01*
X135023809Y-130407200D02*
X134880952Y-130454819D01*
X134880952Y-130454819D02*
X134785714Y-130454819D01*
X135642857Y-130454819D02*
X135642857Y-129454819D01*
X135642857Y-129454819D02*
X136023809Y-129454819D01*
X136023809Y-129454819D02*
X136119047Y-129502438D01*
X136119047Y-129502438D02*
X136166666Y-129550057D01*
X136166666Y-129550057D02*
X136214285Y-129645295D01*
X136214285Y-129645295D02*
X136214285Y-129788152D01*
X136214285Y-129788152D02*
X136166666Y-129883390D01*
X136166666Y-129883390D02*
X136119047Y-129931009D01*
X136119047Y-129931009D02*
X136023809Y-129978628D01*
X136023809Y-129978628D02*
X135642857Y-129978628D01*
X137166666Y-130454819D02*
X136595238Y-130454819D01*
X136880952Y-130454819D02*
X136880952Y-129454819D01*
X136880952Y-129454819D02*
X136785714Y-129597676D01*
X136785714Y-129597676D02*
X136690476Y-129692914D01*
X136690476Y-129692914D02*
X136595238Y-129740533D01*
%TO.C,J1*%
X133166666Y-126454819D02*
X133166666Y-127169104D01*
X133166666Y-127169104D02*
X133119047Y-127311961D01*
X133119047Y-127311961D02*
X133023809Y-127407200D01*
X133023809Y-127407200D02*
X132880952Y-127454819D01*
X132880952Y-127454819D02*
X132785714Y-127454819D01*
X134166666Y-127454819D02*
X133595238Y-127454819D01*
X133880952Y-127454819D02*
X133880952Y-126454819D01*
X133880952Y-126454819D02*
X133785714Y-126597676D01*
X133785714Y-126597676D02*
X133690476Y-126692914D01*
X133690476Y-126692914D02*
X133595238Y-126740533D01*
%TO.C,D2*%
X115454819Y-141738094D02*
X114454819Y-141738094D01*
X114454819Y-141738094D02*
X114454819Y-141499999D01*
X114454819Y-141499999D02*
X114502438Y-141357142D01*
X114502438Y-141357142D02*
X114597676Y-141261904D01*
X114597676Y-141261904D02*
X114692914Y-141214285D01*
X114692914Y-141214285D02*
X114883390Y-141166666D01*
X114883390Y-141166666D02*
X115026247Y-141166666D01*
X115026247Y-141166666D02*
X115216723Y-141214285D01*
X115216723Y-141214285D02*
X115311961Y-141261904D01*
X115311961Y-141261904D02*
X115407200Y-141357142D01*
X115407200Y-141357142D02*
X115454819Y-141499999D01*
X115454819Y-141499999D02*
X115454819Y-141738094D01*
X114550057Y-140785713D02*
X114502438Y-140738094D01*
X114502438Y-140738094D02*
X114454819Y-140642856D01*
X114454819Y-140642856D02*
X114454819Y-140404761D01*
X114454819Y-140404761D02*
X114502438Y-140309523D01*
X114502438Y-140309523D02*
X114550057Y-140261904D01*
X114550057Y-140261904D02*
X114645295Y-140214285D01*
X114645295Y-140214285D02*
X114740533Y-140214285D01*
X114740533Y-140214285D02*
X114883390Y-140261904D01*
X114883390Y-140261904D02*
X115454819Y-140833332D01*
X115454819Y-140833332D02*
X115454819Y-140214285D01*
%TO.C,D1*%
X102261905Y-136454819D02*
X102261905Y-135454819D01*
X102261905Y-135454819D02*
X102500000Y-135454819D01*
X102500000Y-135454819D02*
X102642857Y-135502438D01*
X102642857Y-135502438D02*
X102738095Y-135597676D01*
X102738095Y-135597676D02*
X102785714Y-135692914D01*
X102785714Y-135692914D02*
X102833333Y-135883390D01*
X102833333Y-135883390D02*
X102833333Y-136026247D01*
X102833333Y-136026247D02*
X102785714Y-136216723D01*
X102785714Y-136216723D02*
X102738095Y-136311961D01*
X102738095Y-136311961D02*
X102642857Y-136407200D01*
X102642857Y-136407200D02*
X102500000Y-136454819D01*
X102500000Y-136454819D02*
X102261905Y-136454819D01*
X103785714Y-136454819D02*
X103214286Y-136454819D01*
X103500000Y-136454819D02*
X103500000Y-135454819D01*
X103500000Y-135454819D02*
X103404762Y-135597676D01*
X103404762Y-135597676D02*
X103309524Y-135692914D01*
X103309524Y-135692914D02*
X103214286Y-135740533D01*
%TO.C,C1*%
X145833333Y-123359580D02*
X145785714Y-123407200D01*
X145785714Y-123407200D02*
X145642857Y-123454819D01*
X145642857Y-123454819D02*
X145547619Y-123454819D01*
X145547619Y-123454819D02*
X145404762Y-123407200D01*
X145404762Y-123407200D02*
X145309524Y-123311961D01*
X145309524Y-123311961D02*
X145261905Y-123216723D01*
X145261905Y-123216723D02*
X145214286Y-123026247D01*
X145214286Y-123026247D02*
X145214286Y-122883390D01*
X145214286Y-122883390D02*
X145261905Y-122692914D01*
X145261905Y-122692914D02*
X145309524Y-122597676D01*
X145309524Y-122597676D02*
X145404762Y-122502438D01*
X145404762Y-122502438D02*
X145547619Y-122454819D01*
X145547619Y-122454819D02*
X145642857Y-122454819D01*
X145642857Y-122454819D02*
X145785714Y-122502438D01*
X145785714Y-122502438D02*
X145833333Y-122550057D01*
X146785714Y-123454819D02*
X146214286Y-123454819D01*
X146500000Y-123454819D02*
X146500000Y-122454819D01*
X146500000Y-122454819D02*
X146404762Y-122597676D01*
X146404762Y-122597676D02*
X146309524Y-122692914D01*
X146309524Y-122692914D02*
X146214286Y-122740533D01*
D11*
%TO.C,JP2*%
X139670000Y-120670000D02*
X141000000Y-120670000D01*
X139670000Y-122000000D02*
X139670000Y-120670000D01*
X139670000Y-123270000D02*
X139670000Y-128410000D01*
X139670000Y-123270000D02*
X142330000Y-123270000D01*
X139670000Y-128410000D02*
X142330000Y-128410000D01*
X142330000Y-123270000D02*
X142330000Y-128410000D01*
%TO.C,R1*%
X116800000Y-133000000D02*
X116690000Y-133000000D01*
X116690000Y-135370000D02*
X116690000Y-130630000D01*
X116690000Y-130630000D02*
X104550000Y-130630000D01*
X104550000Y-135370000D02*
X116690000Y-135370000D01*
X104550000Y-130630000D02*
X104550000Y-135370000D01*
X104440000Y-133000000D02*
X104550000Y-133000000D01*
%TO.C,K1*%
X120992500Y-134892500D02*
X120992500Y-132492500D01*
X121192500Y-132692500D02*
X150392500Y-132692500D01*
X121192500Y-145392500D02*
X121192500Y-132692500D01*
X123392500Y-132492500D02*
X120992500Y-132492500D01*
X126832500Y-135292500D02*
X128102500Y-135292500D01*
X126832500Y-136562500D02*
X128102500Y-136562500D01*
X126832500Y-137832500D02*
X129372500Y-139102500D01*
X126832500Y-141642500D02*
X126832500Y-136562500D01*
X128102500Y-135292500D02*
X128102500Y-136562500D01*
X128102500Y-136562500D02*
X129372500Y-136562500D01*
X128102500Y-141642500D02*
X128102500Y-142912500D01*
X128102500Y-142912500D02*
X126832500Y-142912500D01*
X129372500Y-136562500D02*
X129372500Y-141642500D01*
X129372500Y-141642500D02*
X126832500Y-141642500D01*
X150392500Y-132692500D02*
X150392500Y-133892500D01*
X150392500Y-136692500D02*
X150392500Y-141392500D01*
X150392500Y-144192500D02*
X150392500Y-145392500D01*
X150392500Y-145392500D02*
X121192500Y-145392500D01*
%TO.C,JP1*%
X134670000Y-120670000D02*
X136000000Y-120670000D01*
X134670000Y-122000000D02*
X134670000Y-120670000D01*
X134670000Y-123270000D02*
X134670000Y-128410000D01*
X134670000Y-123270000D02*
X137330000Y-123270000D01*
X134670000Y-128410000D02*
X137330000Y-128410000D01*
X137330000Y-123270000D02*
X137330000Y-128410000D01*
%TO.C,J1*%
X101700000Y-128510000D02*
X101700000Y-129350000D01*
X101700000Y-129350000D02*
X102300000Y-129350000D01*
X101940000Y-120890000D02*
X101940000Y-129110000D01*
X101940000Y-120890000D02*
X132060000Y-120890000D01*
X101940000Y-122950000D02*
X132060000Y-122950000D01*
X101940000Y-127850000D02*
X132060000Y-127850000D01*
X101940000Y-128450000D02*
X132060000Y-128450000D01*
X101940000Y-129110000D02*
X132060000Y-129110000D01*
X103250000Y-120950000D02*
X103250000Y-121950000D01*
X103250000Y-120950000D02*
X105750000Y-120950000D01*
X103250000Y-121950000D02*
X105750000Y-121950000D01*
X105750000Y-120950000D02*
X105750000Y-121950000D01*
X108250000Y-120950000D02*
X108250000Y-121950000D01*
X108250000Y-120950000D02*
X110750000Y-120950000D01*
X108250000Y-121950000D02*
X110750000Y-121950000D01*
X108472000Y-125823000D02*
X108226000Y-126069000D01*
X108630000Y-126075000D02*
X108431000Y-126274000D01*
X110570000Y-123725000D02*
X110359000Y-123936000D01*
X110750000Y-120950000D02*
X110750000Y-121950000D01*
X110775000Y-123931000D02*
X110529000Y-124177000D01*
X113250000Y-120950000D02*
X113250000Y-121950000D01*
X113250000Y-120950000D02*
X115750000Y-120950000D01*
X113250000Y-121950000D02*
X115750000Y-121950000D01*
X113472000Y-125823000D02*
X113226000Y-126069000D01*
X113630000Y-126075000D02*
X113431000Y-126274000D01*
X115570000Y-123725000D02*
X115359000Y-123936000D01*
X115750000Y-120950000D02*
X115750000Y-121950000D01*
X115775000Y-123931000D02*
X115529000Y-124177000D01*
X118250000Y-120950000D02*
X118250000Y-121950000D01*
X118250000Y-120950000D02*
X120750000Y-120950000D01*
X118250000Y-121950000D02*
X120750000Y-121950000D01*
X118472000Y-125823000D02*
X118226000Y-126069000D01*
X118630000Y-126075000D02*
X118431000Y-126274000D01*
X120570000Y-123725000D02*
X120359000Y-123936000D01*
X120750000Y-120950000D02*
X120750000Y-121950000D01*
X120775000Y-123931000D02*
X120529000Y-124177000D01*
X123250000Y-120950000D02*
X123250000Y-121950000D01*
X123250000Y-120950000D02*
X125750000Y-120950000D01*
X123250000Y-121950000D02*
X125750000Y-121950000D01*
X123472000Y-125823000D02*
X123226000Y-126069000D01*
X123630000Y-126075000D02*
X123431000Y-126274000D01*
X125570000Y-123725000D02*
X125359000Y-123936000D01*
X125750000Y-120950000D02*
X125750000Y-121950000D01*
X125775000Y-123931000D02*
X125529000Y-124177000D01*
X128250000Y-120950000D02*
X128250000Y-121950000D01*
X128250000Y-120950000D02*
X130750000Y-120950000D01*
X128250000Y-121950000D02*
X130750000Y-121950000D01*
X128472000Y-125823000D02*
X128226000Y-126069000D01*
X128630000Y-126075000D02*
X128431000Y-126274000D01*
X130570000Y-123725000D02*
X130359000Y-123936000D01*
X130750000Y-120950000D02*
X130750000Y-121950000D01*
X130775000Y-123931000D02*
X130529000Y-124177000D01*
X132060000Y-120890000D02*
X132060000Y-129110000D01*
X103213001Y-123919001D02*
G75*
G03*
X103211938Y-126079734I1286999J-1080999D01*
G01*
X105580000Y-123713000D02*
G75*
G03*
X103420092Y-123712922I-1080000J-1287001D01*
G01*
X103419001Y-126286999D02*
G75*
G03*
X104528507Y-126680510I1080999J1286999D01*
G01*
X104500000Y-126680000D02*
G75*
G03*
X105579883Y-126286955I2J1679994D01*
G01*
X105787000Y-126080000D02*
G75*
G03*
X105787078Y-123920092I-1287001J1080000D01*
G01*
X111180000Y-125000000D02*
G75*
G03*
X111180000Y-125000000I-1680000J0D01*
G01*
X116180000Y-125000000D02*
G75*
G03*
X116180000Y-125000000I-1680000J0D01*
G01*
X121180000Y-125000000D02*
G75*
G03*
X121180000Y-125000000I-1680000J0D01*
G01*
X126180000Y-125000000D02*
G75*
G03*
X126180000Y-125000000I-1680000J0D01*
G01*
X131180000Y-125000000D02*
G75*
G03*
X131180000Y-125000000I-1680000J0D01*
G01*
%TO.C,D2*%
X118000000Y-138040000D02*
X118000000Y-138690000D01*
X119120000Y-138690000D02*
X116880000Y-138690000D01*
X116880000Y-138690000D02*
X116880000Y-142930000D01*
X119120000Y-139290000D02*
X116880000Y-139290000D01*
X119120000Y-139410000D02*
X116880000Y-139410000D01*
X119120000Y-139530000D02*
X116880000Y-139530000D01*
X119120000Y-142930000D02*
X119120000Y-138690000D01*
X116880000Y-142930000D02*
X119120000Y-142930000D01*
X118000000Y-143580000D02*
X118000000Y-142930000D01*
%TO.C,D1*%
X112964000Y-144556000D02*
X112964000Y-144556000D01*
X110932000Y-145318000D02*
X110932000Y-144556000D01*
X110932000Y-144556000D02*
X112964000Y-144556000D01*
X110930000Y-145300000D02*
X104330000Y-145300000D01*
X110930000Y-142600000D02*
X110930000Y-139400000D01*
X110930000Y-137500000D02*
X110930000Y-136700000D01*
X110930000Y-136700000D02*
X104330000Y-136700000D01*
X104330000Y-142600000D02*
X104330000Y-139400000D01*
X104330000Y-136700000D02*
X104330000Y-137500000D01*
X104328000Y-145318000D02*
X104328000Y-145318000D01*
X104328000Y-144556000D02*
X104328000Y-145318000D01*
%TO.C,C1*%
X145525000Y-130054775D02*
X145525000Y-129554775D01*
X145275000Y-129804775D02*
X145775000Y-129804775D01*
X144420000Y-127250000D02*
X149580000Y-127250000D01*
X144420000Y-127210000D02*
X149580000Y-127210000D01*
X144421000Y-127170000D02*
X149579000Y-127170000D01*
X144422000Y-127130000D02*
X149578000Y-127130000D01*
X144424000Y-127090000D02*
X149576000Y-127090000D01*
X144427000Y-127050000D02*
X149573000Y-127050000D01*
X144431000Y-127010000D02*
X145960000Y-127010000D01*
X148040000Y-127010000D02*
X149569000Y-127010000D01*
X144435000Y-126970000D02*
X145960000Y-126970000D01*
X148040000Y-126970000D02*
X149565000Y-126970000D01*
X144439000Y-126930000D02*
X145960000Y-126930000D01*
X148040000Y-126930000D02*
X149561000Y-126930000D01*
X144444000Y-126890000D02*
X145960000Y-126890000D01*
X148040000Y-126890000D02*
X149556000Y-126890000D01*
X144450000Y-126850000D02*
X145960000Y-126850000D01*
X148040000Y-126850000D02*
X149550000Y-126850000D01*
X144457000Y-126810000D02*
X145960000Y-126810000D01*
X148040000Y-126810000D02*
X149543000Y-126810000D01*
X144464000Y-126770000D02*
X145960000Y-126770000D01*
X148040000Y-126770000D02*
X149536000Y-126770000D01*
X144472000Y-126730000D02*
X145960000Y-126730000D01*
X148040000Y-126730000D02*
X149528000Y-126730000D01*
X144480000Y-126690000D02*
X145960000Y-126690000D01*
X148040000Y-126690000D02*
X149520000Y-126690000D01*
X144489000Y-126650000D02*
X145960000Y-126650000D01*
X148040000Y-126650000D02*
X149511000Y-126650000D01*
X144499000Y-126610000D02*
X145960000Y-126610000D01*
X148040000Y-126610000D02*
X149501000Y-126610000D01*
X144509000Y-126570000D02*
X145960000Y-126570000D01*
X148040000Y-126570000D02*
X149491000Y-126570000D01*
X144520000Y-126529000D02*
X145960000Y-126529000D01*
X148040000Y-126529000D02*
X149480000Y-126529000D01*
X144532000Y-126489000D02*
X145960000Y-126489000D01*
X148040000Y-126489000D02*
X149468000Y-126489000D01*
X144545000Y-126449000D02*
X145960000Y-126449000D01*
X148040000Y-126449000D02*
X149455000Y-126449000D01*
X144558000Y-126409000D02*
X145960000Y-126409000D01*
X148040000Y-126409000D02*
X149442000Y-126409000D01*
X144572000Y-126369000D02*
X145960000Y-126369000D01*
X148040000Y-126369000D02*
X149428000Y-126369000D01*
X144586000Y-126329000D02*
X145960000Y-126329000D01*
X148040000Y-126329000D02*
X149414000Y-126329000D01*
X144602000Y-126289000D02*
X145960000Y-126289000D01*
X148040000Y-126289000D02*
X149398000Y-126289000D01*
X144618000Y-126249000D02*
X145960000Y-126249000D01*
X148040000Y-126249000D02*
X149382000Y-126249000D01*
X144635000Y-126209000D02*
X145960000Y-126209000D01*
X148040000Y-126209000D02*
X149365000Y-126209000D01*
X144652000Y-126169000D02*
X145960000Y-126169000D01*
X148040000Y-126169000D02*
X149348000Y-126169000D01*
X144671000Y-126129000D02*
X145960000Y-126129000D01*
X148040000Y-126129000D02*
X149329000Y-126129000D01*
X144690000Y-126089000D02*
X145960000Y-126089000D01*
X148040000Y-126089000D02*
X149310000Y-126089000D01*
X144710000Y-126049000D02*
X145960000Y-126049000D01*
X148040000Y-126049000D02*
X149290000Y-126049000D01*
X144732000Y-126009000D02*
X145960000Y-126009000D01*
X148040000Y-126009000D02*
X149268000Y-126009000D01*
X144753000Y-125969000D02*
X145960000Y-125969000D01*
X148040000Y-125969000D02*
X149247000Y-125969000D01*
X144776000Y-125929000D02*
X145960000Y-125929000D01*
X148040000Y-125929000D02*
X149224000Y-125929000D01*
X144800000Y-125889000D02*
X145960000Y-125889000D01*
X148040000Y-125889000D02*
X149200000Y-125889000D01*
X144825000Y-125849000D02*
X145960000Y-125849000D01*
X148040000Y-125849000D02*
X149175000Y-125849000D01*
X144851000Y-125809000D02*
X145960000Y-125809000D01*
X148040000Y-125809000D02*
X149149000Y-125809000D01*
X144878000Y-125769000D02*
X145960000Y-125769000D01*
X148040000Y-125769000D02*
X149122000Y-125769000D01*
X144905000Y-125729000D02*
X145960000Y-125729000D01*
X148040000Y-125729000D02*
X149095000Y-125729000D01*
X144935000Y-125689000D02*
X145960000Y-125689000D01*
X148040000Y-125689000D02*
X149065000Y-125689000D01*
X144965000Y-125649000D02*
X145960000Y-125649000D01*
X148040000Y-125649000D02*
X149035000Y-125649000D01*
X144996000Y-125609000D02*
X145960000Y-125609000D01*
X148040000Y-125609000D02*
X149004000Y-125609000D01*
X145029000Y-125569000D02*
X145960000Y-125569000D01*
X148040000Y-125569000D02*
X148971000Y-125569000D01*
X145063000Y-125529000D02*
X145960000Y-125529000D01*
X148040000Y-125529000D02*
X148937000Y-125529000D01*
X145099000Y-125489000D02*
X145960000Y-125489000D01*
X148040000Y-125489000D02*
X148901000Y-125489000D01*
X145136000Y-125449000D02*
X145960000Y-125449000D01*
X148040000Y-125449000D02*
X148864000Y-125449000D01*
X145174000Y-125409000D02*
X145960000Y-125409000D01*
X148040000Y-125409000D02*
X148826000Y-125409000D01*
X145215000Y-125369000D02*
X145960000Y-125369000D01*
X148040000Y-125369000D02*
X148785000Y-125369000D01*
X145257000Y-125329000D02*
X145960000Y-125329000D01*
X148040000Y-125329000D02*
X148743000Y-125329000D01*
X145301000Y-125289000D02*
X145960000Y-125289000D01*
X148040000Y-125289000D02*
X148699000Y-125289000D01*
X145347000Y-125249000D02*
X145960000Y-125249000D01*
X148040000Y-125249000D02*
X148653000Y-125249000D01*
X145395000Y-125209000D02*
X145960000Y-125209000D01*
X148040000Y-125209000D02*
X148605000Y-125209000D01*
X145446000Y-125169000D02*
X145960000Y-125169000D01*
X148040000Y-125169000D02*
X148554000Y-125169000D01*
X145500000Y-125129000D02*
X145960000Y-125129000D01*
X148040000Y-125129000D02*
X148500000Y-125129000D01*
X145557000Y-125089000D02*
X145960000Y-125089000D01*
X148040000Y-125089000D02*
X148443000Y-125089000D01*
X145617000Y-125049000D02*
X145960000Y-125049000D01*
X148040000Y-125049000D02*
X148383000Y-125049000D01*
X145681000Y-125009000D02*
X145960000Y-125009000D01*
X148040000Y-125009000D02*
X148319000Y-125009000D01*
X145749000Y-124969000D02*
X145960000Y-124969000D01*
X148040000Y-124969000D02*
X148251000Y-124969000D01*
X145822000Y-124929000D02*
X148178000Y-124929000D01*
X145902000Y-124889000D02*
X148098000Y-124889000D01*
X145989000Y-124849000D02*
X148011000Y-124849000D01*
X146085000Y-124809000D02*
X147915000Y-124809000D01*
X146195000Y-124769000D02*
X147805000Y-124769000D01*
X146323000Y-124729000D02*
X147677000Y-124729000D01*
X146482000Y-124689000D02*
X147518000Y-124689000D01*
X146716000Y-124649000D02*
X147284000Y-124649000D01*
X149620000Y-127250000D02*
G75*
G03*
X149620000Y-127250000I-2620000J0D01*
G01*
%TD*%
M02*
