M48
; DRILL file {KiCad 7.0.5} date Tue Sep  5 23:41:21 2023
; FORMAT={-:-/ absolute / inch / decimal}
; #@! TF.CreationDate,2023-09-05T23:41:21-04:00
; #@! TF.GenerationSoftware,Kicad,Pcbnew,7.0.5
; #@! TF.FileFunction,Plated,1,2,PTH
FMAT,2
INCH
; #@! TA.AperFunction,Plated,PTH,ComponentDrill
T1C0.0315
; #@! TA.AperFunction,Plated,PTH,ComponentDrill
T2C0.0394
; #@! TA.AperFunction,Plated,PTH,ComponentDrill
T3C0.0472
; #@! TA.AperFunction,Plated,PTH,ComponentDrill
T4C0.0512
; #@! TA.AperFunction,Plated,PTH,ComponentDrill
T5C0.0591
%
G90
G05
T1
X4.6457Y-5.3937
X4.6457Y-5.6937
X5.7874Y-4.9606
X5.7874Y-5.0591
T2
X5.3543Y-4.8031
X5.3543Y-4.9031
X5.3543Y-5.0031
X5.5512Y-4.8031
X5.5512Y-4.9031
X5.5512Y-5.0031
T3
X4.0551Y-5.2362
X4.6551Y-5.2362
T4
X4.1142Y-4.9213
X4.311Y-4.9213
X4.5079Y-4.9213
X4.7047Y-4.9213
X4.9016Y-4.9213
X5.0984Y-4.9213
T5
X4.8934Y-5.3265
X4.8934Y-5.6218
X5.484Y-5.3265
X5.484Y-5.6218
X5.6808Y-5.3265
X5.6808Y-5.6218
X5.8777Y-5.3265
X5.8777Y-5.6218
T0
M30
